<?xml version="1.0" encoding="UTF-8"?>
<svg width="1200" height="800" viewBox="0 0 1200 800" fill="none" xmlns="http://www.w3.org/2000/svg">
  <!-- Fondo degradado futurista -->
  <defs>
    <linearGradient id="futuristicGradient" x1="0%" y1="0%" x2="100%" y2="100%">
      <stop offset="0%" style="stop-color:#0a0a0a;stop-opacity:1" />
      <stop offset="25%" style="stop-color:#1a1a2e;stop-opacity:1" />
      <stop offset="50%" style="stop-color:#16213e;stop-opacity:1" />
      <stop offset="75%" style="stop-color:#0f3460;stop-opacity:1" />
      <stop offset="100%" style="stop-color:#533483;stop-opacity:1" />
    </linearGradient>
    <radialGradient id="cityGlow" cx="50%" cy="70%" r="60%">
      <stop offset="0%" style="stop-color:#00d4ff;stop-opacity:0.3" />
      <stop offset="50%" style="stop-color:#0099cc;stop-opacity:0.2" />
      <stop offset="100%" style="stop-color:#003d5c;stop-opacity:0.1" />
    </radialGradient>
    <linearGradient id="buildingGradient" x1="0%" y1="0%" x2="0%" y2="100%">
      <stop offset="0%" style="stop-color:#2d3748;stop-opacity:0.9" />
      <stop offset="100%" style="stop-color:#1a202c;stop-opacity:1" />
    </linearGradient>
  </defs>
  
  <!-- Fondo base -->
  <rect width="1200" height="800" fill="url(#futuristicGradient)"/>
  
  <!-- Resplandor de ciudad -->
  <ellipse cx="600" cy="560" rx="500" ry="300" fill="url(#cityGlow)"/>
  
  <!-- Edificios futuristas -->
  <rect x="50" y="400" width="80" height="400" fill="url(#buildingGradient)" rx="4"/>
  <rect x="150" y="300" width="60" height="500" fill="url(#buildingGradient)" rx="4"/>
  <rect x="230" y="350" width="90" height="450" fill="url(#buildingGradient)" rx="4"/>
  <rect x="340" y="250" width="70" height="550" fill="url(#buildingGradient)" rx="4"/>
  <rect x="430" y="320" width="100" height="480" fill="url(#buildingGradient)" rx="4"/>
  <rect x="550" y="200" width="80" height="600" fill="url(#buildingGradient)" rx="4"/>
  <rect x="650" y="280" width="90" height="520" fill="url(#buildingGradient)" rx="4"/>
  <rect x="760" y="180" width="75" height="620" fill="url(#buildingGradient)" rx="4"/>
  <rect x="860" y="300" width="85" height="500" fill="url(#buildingGradient)" rx="4"/>
  <rect x="970" y="220" width="70" height="580" fill="url(#buildingGradient)" rx="4"/>
  <rect x="1060" y="350" width="90" height="450" fill="url(#buildingGradient)" rx="4"/>
  
  <!-- Luces de ventanas -->
  <rect x="60" y="420" width="8" height="12" fill="#00d4ff" opacity="0.8"/>
  <rect x="80" y="450" width="8" height="12" fill="#00d4ff" opacity="0.6"/>
  <rect x="100" y="480" width="8" height="12" fill="#00d4ff" opacity="0.9"/>
  <rect x="160" y="320" width="6" height="10" fill="#00d4ff" opacity="0.7"/>
  <rect x="180" y="360" width="6" height="10" fill="#00d4ff" opacity="0.8"/>
  <rect x="240" y="380" width="8" height="12" fill="#00d4ff" opacity="0.6"/>
  <rect x="270" y="420" width="8" height="12" fill="#00d4ff" opacity="0.9"/>
  <rect x="350" y="280" width="6" height="10" fill="#00d4ff" opacity="0.8"/>
  <rect x="380" y="320" width="6" height="10" fill="#00d4ff" opacity="0.7"/>
  <rect x="440" y="350" width="8" height="12" fill="#00d4ff" opacity="0.8"/>
  <rect x="480" y="400" width="8" height="12" fill="#00d4ff" opacity="0.6"/>
  <rect x="560" y="230" width="6" height="10" fill="#00d4ff" opacity="0.9"/>
  <rect x="590" y="280" width="6" height="10" fill="#00d4ff" opacity="0.7"/>
  <rect x="660" y="310" width="8" height="12" fill="#00d4ff" opacity="0.8"/>
  <rect x="700" y="350" width="8" height="12" fill="#00d4ff" opacity="0.6"/>
  <rect x="770" y="210" width="6" height="10" fill="#00d4ff" opacity="0.9"/>
  <rect x="800" y="260" width="6" height="10" fill="#00d4ff" opacity="0.8"/>
  <rect x="870" y="330" width="8" height="12" fill="#00d4ff" opacity="0.7"/>
  <rect x="910" y="380" width="8" height="12" fill="#00d4ff" opacity="0.9"/>
  <rect x="980" y="250" width="6" height="10" fill="#00d4ff" opacity="0.8"/>
  <rect x="1010" y="300" width="6" height="10" fill="#00d4ff" opacity="0.6"/>
  <rect x="1070" y="380" width="8" height="12" fill="#00d4ff" opacity="0.7"/>
  <rect x="1110" y="420" width="8" height="12" fill="#00d4ff" opacity="0.9"/>
  
  <!-- Hologramas y efectos futuristas -->
  <circle cx="300" cy="150" r="3" fill="#00ff88" opacity="0.8"/>
  <circle cx="700" cy="120" r="2" fill="#ff0080" opacity="0.7"/>
  <circle cx="900" cy="100" r="2.5" fill="#ffff00" opacity="0.6"/>
  
  <!-- Líneas de energía -->
  <line x1="0" y1="600" x2="1200" y2="580" stroke="#00d4ff" stroke-width="1" opacity="0.3"/>
  <line x1="0" y1="650" x2="1200" y2="630" stroke="#00d4ff" stroke-width="1" opacity="0.2"/>
  <line x1="0" y1="700" x2="1200" y2="680" stroke="#00d4ff" stroke-width="1" opacity="0.4"/>
  
  <!-- Partículas flotantes -->
  <circle cx="150" cy="200" r="1" fill="#ffffff" opacity="0.6"/>
  <circle cx="400" cy="180" r="1.5" fill="#ffffff" opacity="0.4"/>
  <circle cx="650" cy="160" r="1" fill="#ffffff" opacity="0.8"/>
  <circle cx="850" cy="140" r="1.2" fill="#ffffff" opacity="0.5"/>
  <circle cx="1050" cy="190" r="1" fill="#ffffff" opacity="0.7"/>
  
  <!-- Overlay de atmósfera -->
  <rect width="1200" height="800" fill="url(#futuristicGradient)" opacity="0.1"/>
</svg>
